<svg id="jas" xmlns="http://www.w3.org/2000/svg" viewBox="0 0 221.89606 268.52598">
 <defs>
  <style>
   .fill{
    fill:#ffffff;
   }
   @keyframes mlebu {
    0% { opacity: 0; }
    25% { opacity: 0; }
    50% { opacity: 1; }
    80% { opacity: 1; }
    100% { opacity: 1; }
   }
   #i {
    opacity:0;
    animation: mlebu 5s 1s ease;
    animation-fill-mode:forwards
   }
   #j {
    opacity:0;
    animation: mlebu 5s 2s ease;
    animation-fill-mode:forwards
   }
   #a {
    opacity:0;
    animation: mlebu 5s 3s ease;
    animation-fill-mode:forwards
   }
   #ja {
    opacity:0;
    animation: mlebu 5s 4s ease;
    animation-fill-mode:forwards
   }
   #s {
    opacity:0;
    animation: mlebu 5s 4.5s ease;
    animation-fill-mode:forwards
   }
  </style>
 </defs>
 <title>loader-fix</title>
 <polygon id="i" class="fill" points="50.57 202.195 77.386 229.011 77.386 0 50.57 104.854 50.57 202.195"/>
 <polygon id="j" class="fill" points="34.413 165.543 46.743 165.543 46.743 197.688 14.485 165.543 34.413 165.543"/>
 <path id="a" class="fill" d="M81.26929,50.93858l60.7748,61.68189v85.09606l30.8693,31.29449-.39686-132.37795L81.2126,3.9685Z"/>
 <path id="ja" class="fill" d="M9.83622,241.5685V249.789a5.58919,5.58919,0,0,1-.45354,2.26771,5.67788,5.67788,0,0,1-1.2189,1.81418,5.88122,5.88122,0,0,1-1.84252,1.24724,6.10551,6.10551,0,0,1-2.26772.45354,5.95965,5.95965,0,0,1-2.23937-.45354A5.75749,5.75749,0,0,1,0,253.87087l1.67244-1.67245a3.17357,3.17357,0,0,0,2.3811,1.02048,3.297,3.297,0,0,0,2.4378-1.02048,2.917,2.917,0,0,0,.737-1.10551,3.34234,3.34234,0,0,0,.25511-1.30393V241.5685Zm16.8378,0V249.789a5.5892,5.5892,0,0,1-.45355,2.26771,5.67772,5.67772,0,0,1-1.2189,1.81418,5.88118,5.88118,0,0,1-1.84251,1.24724,5.9597,5.9597,0,0,1-2.23938.45354,5.84871,5.84871,0,0,1-2.23937-.45354,5.57368,5.57368,0,0,1-1.84251-1.24724,5.75728,5.75728,0,0,1-1.24725-1.81418A6.10546,6.10546,0,0,1,15.137,249.789V241.5685h2.35275V249.789a3.34234,3.34234,0,0,0,.25512,1.30393,3.75834,3.75834,0,0,0,1.87087,1.87087,3.34234,3.34234,0,0,0,1.30393.25512,3.4532,3.4532,0,0,0,3.14646-2.126,3.34234,3.34234,0,0,0,.25512-1.30393V241.5685Zm13.46456-.02834h2.35276v13.71968H39.94016l-5.49922-9.38268v9.38268H32.08819V241.54016h2.55118l5.49921,9.38267Zm21.85512,5.69763a3.84234,3.84234,0,0,0,.05669.56693,4.186,4.186,0,0,1,.02835.59528,7.054,7.054,0,0,1-.56693,2.778,6.676,6.676,0,0,1-1.53071,2.26772,6.96369,6.96369,0,0,1-2.26771,1.53071,7.08945,7.08945,0,0,1-5.55591,0,6.96373,6.96373,0,0,1-2.26772-1.53071,6.67631,6.67631,0,0,1-1.53071-2.26772,7.054,7.054,0,0,1-.56692-2.778,7.15821,7.15821,0,0,1,.56692-2.778,7.27741,7.27741,0,0,1,1.53071-2.26772,6.96373,6.96373,0,0,1,2.26772-1.53071,7.054,7.054,0,0,1,2.77795-.56693,7.14405,7.14405,0,0,1,5.04567,2.09764L58.337,245.02677A5.20616,5.20616,0,0,0,56.778,243.978a5.0842,5.0842,0,0,0-1.84252-.3685,4.82017,4.82017,0,0,0-1.81417.3685,4.89288,4.89288,0,0,0-2.60787,2.60788A4.42071,4.42071,0,0,0,50.14488,248.4a4.55324,4.55324,0,0,0,.36851,1.84252,5.20577,5.20577,0,0,0,1.04881,1.559,4.87392,4.87392,0,0,0,1.55906,1.04882,4.80382,4.80382,0,0,0,1.81417.34016,5.05952,5.05952,0,0,0,1.84252-.34016,5.206,5.206,0,0,0,1.55906-1.04882,5.38548,5.38548,0,0,0,1.24724-2.211h-6.3496l.59527-2.35276Zm14.62677-3.31653H69.73228v3.31653H74.863l.56693,2.35276H69.73228v3.34488h6.88819v2.35276H67.37953V241.5685h9.24094ZM98.3622,241.5685l6.20788,13.71969H101.9622l-1.04881-2.35276h0l-1.07717-2.35275h0l-2.778-6.15118-2.778,6.15118H97.852l1.04882,2.35275H93.2315l-1.07717,2.35276H89.5748l6.20788-13.71969Zm21.25985,4.90394a4.81787,4.81787,0,0,1-.19843,1.44567,5.9817,5.9817,0,0,1-.56693,1.2189,5.23186,5.23186,0,0,1-.87874,1.04882,4.23432,4.23432,0,0,1-1.1622.737l2.8063,4.36536h-2.8063l-2.49449-3.85512h-1.5874l.93543-2.35276h1.02047a2.52688,2.52688,0,0,0,1.84252-.76535,2.70144,2.70144,0,0,0,.53859-.85039,2.388,2.388,0,0,0,.19842-.99213,2.2601,2.2601,0,0,0-.19842-.96378,2.3026,2.3026,0,0,0-.53859-.822,2.52692,2.52692,0,0,0-1.84252-.76535h-2.778v11.36693h-2.35276V241.5685h5.13071a4.86528,4.86528,0,0,1,1.92756.36851,5.46965,5.46965,0,0,1,1.55906,1.07716,4.58208,4.58208,0,0,1,1.04882,1.55906A4.31055,4.31055,0,0,1,119.62205,246.47244Zm17.31968,6.97323a7.08618,7.08618,0,0,1-2.29606,1.53071,6.49955,6.49955,0,0,1-2.778.56693,6.67842,6.67842,0,0,1-2.778-.56693,7.27731,7.27731,0,0,1-2.26771-1.53071,6.676,6.676,0,0,1-1.53071-2.26772,7.05378,7.05378,0,0,1-.56693-2.778,7.158,7.158,0,0,1,.56693-2.778,7.18193,7.18193,0,0,1,3.79842-3.79843,7.15827,7.15827,0,0,1,2.778-.56693,6.95207,6.95207,0,0,1,2.778.56693,7.08618,7.08618,0,0,1,2.29606,1.53071l-1.67244,1.67244a4.874,4.874,0,0,0-1.55905-1.04882,4.71977,4.71977,0,0,0-3.6567,0,4.893,4.893,0,0,0-2.60787,2.60788,4.93555,4.93555,0,0,0-.36851,1.81417,5.08425,5.08425,0,0,0,.36851,1.84252,5.20581,5.20581,0,0,0,1.04882,1.559,4.60945,4.60945,0,0,0,3.37323,1.389,4.95106,4.95106,0,0,0,1.84252-.34016,4.87388,4.87388,0,0,0,1.55905-1.04882Zm13.06772-11.87717h2.35275v13.71969h-2.35275v-5.69764h-5.726v5.69764h-2.35275V241.5685h2.35275v5.66929h5.726Zm10.28976,0v13.71969h-2.35275V241.5685Zm15.73229,0v2.35276h-4.0252v11.36693h-2.35276V243.92126H165.6V241.5685h10.4315Zm14.42834,2.35276h-6.88819v3.31653h5.13071l.56693,2.35276h-5.69764v3.34488h6.88819v2.35276H181.2189V241.5685h9.24094Zm16.29921,11.39527h-3.31653l-5.2441-5.21574v5.1874h-2.35275V241.5685h2.35275v5.21575l5.18741-5.1874h3.34488l-6.85984,6.85984Zm15.137-13.748v2.35276h-4.02519v11.36693h-2.35276V243.92126h-4.05354V241.5685h10.43149Z"/><path id="s" class="fill" d="M80.07874,266.68346a1.18185,1.18185,0,0,0,.51024.737,1.61046,1.61046,0,0,0,.93543.31181,1.4557,1.4557,0,0,0,1.04882-.42519,1.1965,1.1965,0,0,0,.42519-.90709,1.13651,1.13651,0,0,0-.42519-.99213,2.90759,2.90759,0,0,0-.99213-.3685,3.49437,3.49437,0,0,1-1.389-.53858,1.83517,1.83517,0,0,1-.652-1.55906,1.96921,1.96921,0,0,1,.62362-1.50236,2.012,2.012,0,0,1,1.50236-.62362,2.16977,2.16977,0,0,1,1.10551.31181,2.09384,2.09384,0,0,1,.7937.85039l-.70866.34016a1.47219,1.47219,0,0,0-.48189-.53858,1.567,1.567,0,0,0-.70866-.19843,1.35528,1.35528,0,0,0-1.33228,1.36063,1.17119,1.17119,0,0,0,.42519.99213,4.99424,4.99424,0,0,0,.99213.3685,4.08435,4.08435,0,0,1,1.389.51024,2.08953,2.08953,0,0,1-.02835,3.06141,2.25125,2.25125,0,0,1-2.97638.17008,2.08566,2.08566,0,0,1-.822-1.19055Zm11.42362-5.726h4.70551v.76535H94.252v6.63307h-.7937v-6.63307H91.50236Zm18.085,0v4.8189a2.65123,2.65123,0,0,1-.7937,1.9559,2.7489,2.7489,0,0,1-1.92756.7937,2.69973,2.69973,0,0,1-1.92756-.7937,2.65123,2.65123,0,0,1-.7937-1.9559v-4.8189h.76536v4.8189a1.92621,1.92621,0,0,0,.56692,1.389,1.86089,1.86089,0,0,0,1.389.56693,1.75844,1.75844,0,0,0,1.36063-.56693,1.844,1.844,0,0,0,.59528-1.389v-4.8189Zm10.31811,0a3.67768,3.67768,0,0,1,3.685,3.685,3.57358,3.57358,0,0,1-1.07716,2.60787,3.5366,3.5366,0,0,1-2.60788,1.10551H118.0063v-7.39842Zm-1.10551.76535v5.83937h1.10551a2.78348,2.78348,0,0,0,2.04095-.85039,2.90839,2.90839,0,0,0,0-4.11024,2.81081,2.81081,0,0,0-2.04095-.87874Zm14.17323-.76535v7.39842h-.7937v-7.39842Zm12.359-.14173a3.61655,3.61655,0,0,1,2.66457,1.10551,3.78363,3.78363,0,0,1,1.07717,2.74961,3.67438,3.67438,0,0,1-1.07717,2.72125,3.69779,3.69779,0,0,1-5.32913,0,3.78757,3.78757,0,0,1-1.07717-2.72125,3.90251,3.90251,0,0,1,1.07717-2.74961A3.61651,3.61651,0,0,1,145.33228,260.81575Zm2.09764,1.64409a2.943,2.943,0,0,0-4.19527,0,3.18532,3.18532,0,0,0,0,4.3937,2.943,2.943,0,0,0,4.19527,0,3.18535,3.18535,0,0,0,0-4.3937Z"/></svg>